<svg class="svg-canvas" viewBox="0 0 800 600" width="1600" height="1200" preserveAspectRatio="none" version="1.1" xmlns="http://www.w3.org/2000/svg" xmlns:xlink="http://www.w3.org/1999/xlink">
      <!--滤镜-->
      <defs></defs>
    
      <!-- 背景 -->
      <g id="background">
          <rect x="0" y="0" fill="transparent" width="800" height="600"></rect>
          
        </g>
    
      <!--元素-->
      
              <g id="shape_9XhNjTDpYm" ref="shape_9XhNjTDpYm" key="shape_9XhNjTDpYm" transform="translate(-143.3398624622841,-28.350962706022813) rotate(0,543.3398624622841,353.8398624622841) scale(1,1)" style="opacity: 1;" filter="">
                <!--普通元素-->
                <svg xmlns="http://www.w3.org/2000/svg" version="1.1" xmlns:xlink="http://www.w3.org/1999/xlink" width="1086.6797249245683" height="707.6797249245682" viewBox="0 0 1086.6797249245683 707.6797249245682" data-parent="shape_9XhNjTDpYm"><g data-role="text" data-width="479.46362000000005" data-height="101" transform="translate(303.60805246228404, 303.3398624622841)"><path d="M17.09 0L0.30 0L28.21-67.44L44.69-67.44L72.60 0L55.81 0L49.24-15.57L23.66-15.57L17.09 0ZM46.11-27.60L36.50-51.16L26.90-27.60L46.11-27.60Z" transform="translate(0 86) " fill="#fa17fa" stroke="#fa17fa" stroke-width="0.169" data-glyph-w="73.00142000000001" data-glyph-h="101.11" data-glyph-ascender="86.85349000000001" data-glyph-descender="-14.25651"></path><path d="M44.19 0L6.88 0L6.88-67.44L44.99-67.44Q53.99-67.44 58.04-65.32L58.04-65.32Q62.79-62.99 65.22-57.53L65.22-57.53Q66.93-53.79 66.93-49.75L66.93-49.75Q66.93-44.49 64.15-39.94Q61.37-35.39 57.13-33.67L57.13-33.67Q66.93-29.22 66.93-17.80L66.93-17.80Q66.93-11.22 63.80-6.77L63.80-6.77Q61.07-2.93 56.82-1.47Q52.58 0 44.19 0L44.19 0ZM21.23-55.41L21.23-39.74L40.75-39.74Q43.88-39.74 45.25-40.04Q46.61-40.34 47.93-41.35L47.93-41.35Q51.06-43.78 51.06-48.03L51.06-48.03Q51.06-52.07 48.13-53.99L48.13-53.99Q46.01-55.41 41.05-55.41L41.05-55.41L21.23-55.41ZM21.23-27.70L21.23-12.03L40.75-12.03Q43.88-12.03 45.30-12.34Q46.71-12.64 47.93-13.65L47.93-13.65Q51.06-16.08 51.06-20.32L51.06-20.32Q51.06-24.37 48.13-26.29L48.13-26.29Q46.01-27.70 41.05-27.70L41.05-27.70L21.23-27.70Z" transform="translate(73.00142000000001 86) " fill="#fa17fa" stroke="#fa17fa" stroke-width="0.169" data-glyph-w="70.57478" data-glyph-h="101.11" data-glyph-ascender="86.85349000000001" data-glyph-descender="-14.25651"></path><path d="M37.51-12.03L58.14-12.03L58.14 0L34.58 0Q27.91 0 24.37-0.71L24.37-0.71Q11.93-3.13 6.67-14.56L6.67-14.56Q3.24-22.24 3.24-33.57L3.24-33.57Q3.24-47.12 8.49-55.61L8.49-55.61Q12.34-61.78 18.76-64.61Q25.18-67.44 35.29-67.44L35.29-67.44L58.14-67.44L58.14-55.41L36.91-55.41Q27.30-55.41 22.85-50.25L22.85-50.25Q19.11-46.01 19.11-34.88L19.11-34.88Q19.11-19.92 24.87-15.27L24.87-15.27Q28.92-12.03 37.51-12.03L37.51-12.03Z" transform="translate(143.57620000000003 86) " fill="#fa17fa" stroke="#fa17fa" stroke-width="0.169" data-glyph-w="61.27266" data-glyph-h="101.11" data-glyph-ascender="86.85349000000001" data-glyph-descender="-14.25651"></path><path d="M6.88 0L6.88-67.44L35.49-67.44Q46.21-67.44 52.07-65.32L52.07-65.32Q62.89-61.37 66.53-50.86L66.53-50.86Q69.26-42.77 69.26-33.57L69.26-33.57Q69.26-24.47 66.63-16.38L66.63-16.38Q64.00-8.09 57.94-4.15L57.94-4.15Q54.09-1.72 49.49-0.86Q44.89 0 35.49 0L35.49 0L6.88 0ZM35.49-55.41L21.23-55.41L21.23-12.03L35.49-12.03Q44.89-12.03 48.53-16.18L48.53-16.18Q50.76-18.81 52.12-23.56Q53.49-28.31 53.49-33.67L53.49-33.67Q53.49-39.64 51.87-44.59Q50.25-49.54 47.62-51.97L47.62-51.97Q43.78-55.41 35.49-55.41L35.49-55.41Z" transform="translate(204.84886000000003 86) " fill="#fa17fa" stroke="#fa17fa" stroke-width="0.169" data-glyph-w="72.39476" data-glyph-h="101.11" data-glyph-ascender="86.85349000000001" data-glyph-descender="-14.25651"></path><path d="M47.42-44.29L38.73-44.29L38.73-42.06L58.34-42.06L58.34-34.68L5.46-34.68L5.46-42.06L24.97-42.06L24.97-44.29L6.88-44.29L6.88-73.00L57.03-73.00L57.03-53.79Q57.03-51.97 56.22-50.05L56.22-50.05Q55.41-48.23 54.19-47.02L54.19-47.02Q52.88-45.70 51.06-45.10L51.06-45.10Q49.44-44.29 47.42-44.29L47.42-44.29ZM18.30 0.10L20.63-7.38Q20.83-7.38 21.38-7.43Q21.94-7.48 22.60-7.53Q23.26-7.58 23.76-7.68Q24.27-7.79 24.47-7.89L24.47-7.89Q24.97-8.70 24.97-9.30L24.97-9.30L24.97-14.66L6.77-14.66L6.77-30.64L6.88-30.64L6.88-32.96L57.03-32.96L57.03-24.17Q57.03-23.26 56.77-22.29Q56.52-21.33 56.22-20.53L56.22-20.53Q55.81-19.62 55.31-18.86Q54.80-18.10 54.19-17.49L54.19-17.49Q52.88-16.28 51.06-15.47L51.06-15.47Q49.44-14.66 47.42-14.66L47.42-14.66L38.73-14.66L38.73-11.02Q38.73-8.39 37.92-6.57L37.92-6.57Q37.11-4.55 35.49-3.13L35.49-3.13Q34.18-1.82 31.95-0.71L31.95-0.71Q29.93 0.10 27.60 0.10L27.60 0.10L18.30 0.10ZM59.96-24.27L78.97-48.63L95.65-48.63L76.34-24.27L59.96-24.27ZM59.96-48.74L78.97-73.00L95.65-73.00L76.34-48.74L59.96-48.74ZM59.96-0.10L78.97-24.27L95.65-24.27L76.34-0.10L59.96-0.10ZM53.59-12.23L57.03 0.10L46.92 0.10L43.68-12.23L53.59-12.23ZM18.81-12.23L15.37 0.10L5.46 0.10L8.80-12.23L18.81-12.23ZM20.53-25.38L20.53-21.23L41.76-21.23Q42.37-21.23 42.77-21.74L42.77-21.74Q43.28-22.14 43.28-22.75L43.28-22.75L43.28-25.38L20.53-25.38ZM20.63-54.70L20.63-51.77L41.76-51.77Q42.26-51.77 42.77-52.27L42.77-52.27Q43.28-52.58 43.28-53.39L43.28-53.39L43.28-54.70L20.63-54.70ZM20.63-64.51L20.63-62.08L43.28-62.08L43.28-64.51L20.63-64.51Z" transform="translate(277.24362 86) " fill="#fa17fa" stroke="#fa17fa" stroke-width="0.169" data-glyph-w="101.11" data-glyph-h="101.11" data-glyph-ascender="86.85349000000001" data-glyph-descender="-14.25651"></path><path d="M47.02-18.50L47.02-73.00L84.02-73.00Q88.07-73.00 90.85-70.17Q93.63-67.34 93.63-63.40L93.63-63.40L93.63-18.50L79.57-18.50L79.57-60.26Q79.57-62.28 78.16-63.65Q76.74-65.01 74.82-65.01L74.82-65.01L60.06-65.01L60.06-18.91L63.90-23.26L63.90-56.01L76.84-56.01L76.84-19.72L72.80-15.07L83.31-15.07L83.31-10.72Q83.31-9.40 84.12-8.49L84.12-8.49Q85.13-7.48 86.45-7.48L86.45-7.48L96.66-7.48L92.31 0.20L81.39 0.20Q78.76 0.20 77.05-0.61L77.05-0.61Q75.02-1.52 73.61-2.93L73.61-2.93Q72.09-4.45 71.18-6.47L71.18-6.47Q70.27-8.59 70.27-10.92L70.27-10.92L70.27-12.23L59.65 0.20L42.87 0.20L59.65-18.50L47.02-18.50ZM16.58-23.05L4.45-23.05L22.65-54.90L6.77-54.90L6.77-64.91L14.46-64.91L11.02-73.00L25.78-73.00L29.22-64.91L42.97-64.91L31.34-43.88L39.13-43.88L45.50-17.29L33.97-17.29L29.52-36.10L29.52 0.20L16.58 0.20L16.58-23.05Z" transform="translate(378.35362000000003 86) " fill="#fa17fa" stroke="#fa17fa" stroke-width="0.169" data-glyph-w="101.11" data-glyph-h="101.11" data-glyph-ascender="86.85349000000001" data-glyph-descender="-14.25651"></path></g></svg>
              </g>
              <g id="shape_8WInHcdBY4" ref="shape_8WInHcdBY4" key="shape_8WInHcdBY4" transform="translate(308.78859857482183,375.81263906625463) rotate(0,91.21140142517815,27.6518752412209) scale(1,1)" style="opacity: 1;" filter="">
                <!--普通元素-->
                <svg version="1.1" id="图层_1" xmlns="http://www.w3.org/2000/svg" xmlns:xlink="http://www.w3.org/1999/xlink" x="0px" y="0px" viewBox="0 0 91.7 27.8" enable-background="new 0 0 91.7 27.8" xml:space="preserve" width="182.4228028503563" height="55.3037504824418" class="style-removed" preserveAspectRatio="none" data-parent="shape_8WInHcdBY4">
<g>
	<path fill="#fa17fa" d="M81.4,3.5l-67.7,19c-2.1,0.6-4.2,0.2-5.9-1.1C6,20.1,5,18.1,5,16V0H0v16c0,3.7,1.7,7.2,4.7,9.4
		c2.1,1.6,4.6,2.4,7.1,2.4c1.1,0,2.1-0.2,3.2-0.5l67.7-19c4.2-1.2,7.5-4.3,9-8.3h-5.6C85,1.7,83.4,2.9,81.4,3.5z" stroke-width="0"></path>
</g>
</svg>
              </g>
              <g id="shape_YEG5tZvszG" ref="shape_YEG5tZvszG" key="shape_YEG5tZvszG" transform="translate(308.78859857482183,168.88361045130358) rotate(0,91.21140142517815,50.772359616847694) scale(1,1)" style="opacity: 1;" filter="">
                <!--普通元素-->
                <svg version="1.1" id="图层_1" xmlns="http://www.w3.org/2000/svg" xmlns:xlink="http://www.w3.org/1999/xlink" x="0px" y="0px" viewBox="0 0 91.8 51.1" enable-background="new 0 0 91.8 51.1" xml:space="preserve" width="182.4228028503563" height="101.54471923369539" class="style-removed" preserveAspectRatio="none" data-parent="shape_YEG5tZvszG">
<path fill="#fa17fa" d="M5,35.4c0-2.1,1-4.1,2.7-5.4c1.2-0.9,2.6-1.4,4.1-1.4c0.6,0,1.2,0.1,1.8,0.3l67.7,18.7
	c2.1,0.6,3.8,1.9,4.9,3.6h5.5c-1.5-4-4.8-7.2-9.1-8.4l-28-7.7l0,0l13.1-19.5c0.8-1.1,0.5-2.7-0.7-3.5c-1.1-0.8-2.7-0.5-3.5,0.7
	l-13.5,20c-0.1,0.1-0.2,0.2-0.3,0.2c-0.2,0-0.3-0.1-0.3-0.2l-20-31.6C28.7,0,27.2-0.4,26,0.4c-1.2,0.7-1.5,2.3-0.8,3.5L43,31.8
	l-28-7.7c-3.6-1-7.3-0.3-10.3,2c-3,2.3-4.6,5.7-4.6,9.4v15.7h5V35.4z" stroke-width="0"></path>
</svg>
              </g>
    </svg>